# xmcd
# 
# Track frame offsets:
#     150
#     16249
#     34525
#     41573
#     58121
#     72065
#     89850
#     103624
#     128897
#     137935
#     152173
#     167590
# 
# Disc length: 2535
# 
# Revision: 1
# Processed by: cddbd v1.5.2PL0 Copyright (c) Steve Scherf et al.
# Submitted via: fre:ac v1.0.27
# 
DISCID=a109e50c
DTITLE=Horslips - The Táin
DYEAR=1973
DGENRE=Folk/Rock
TTITLE0=Sentanta
TTITLE1=Maeve's Court
TTITLE2=Charolais
TTITLE3=The March - Part 1
TTITLE4=The March - Part 2
TTITLE5=Dearg Doom
TTITLE6=Ferdia's Song
TTITLE7=Gae Bolga
TTITLE8=Cu Chulainn's Lament
TTITLE9=Faster than the Hound
TTITLE10=The Morrigan's Dream
TTITLE11=Time to Kill
EXTD=
EXTT0=
EXTT1=
EXTT2=
EXTT3=
EXTT4=
EXTT5=
EXTT6=
EXTT7=
EXTT8=
EXTT9=
EXTT10=
EXTT11=
PLAYORDER=
